<mxfile host="Electron" modified="2024-03-14T10:36:45.030Z" agent="Mozilla/5.0 (Macintosh; Intel Mac OS X 10_15_7) AppleWebKit/537.36 (KHTML, like Gecko) draw.io/24.0.4 Chrome/120.0.6099.109 Electron/28.1.0 Safari/537.36" etag="cJfmflE8gg1wpcfeKy5E" version="24.0.4" type="device">
  <diagram id="EvEPHZwvg9G1aq0huBLt" name="Page-1">
    <mxGraphModel dx="1813" dy="937" grid="1" gridSize="10" guides="1" tooltips="1" connect="1" arrows="1" fold="1" page="1" pageScale="1" pageWidth="1169" pageHeight="827" math="0" shadow="0">
      <root>
        <mxCell id="0" />
        <mxCell id="1" parent="0" />
        <mxCell id="GkP0RU8iJOVoVW0LUv2G-11" value="" style="rounded=1;whiteSpace=wrap;html=1;" parent="1" vertex="1">
          <mxGeometry x="270" y="244" width="290" height="86" as="geometry" />
        </mxCell>
        <mxCell id="2" value="チャンク分割" style="rounded=1;whiteSpace=wrap;html=1;" parent="1" vertex="1">
          <mxGeometry x="300" y="267.2" width="90" height="41" as="geometry" />
        </mxCell>
        <mxCell id="GkP0RU8iJOVoVW0LUv2G-2" value="" style="sketch=0;points=[[0,0,0],[0.25,0,0],[0.5,0,0],[0.75,0,0],[1,0,0],[0,1,0],[0.25,1,0],[0.5,1,0],[0.75,1,0],[1,1,0],[0,0.25,0],[0,0.5,0],[0,0.75,0],[1,0.25,0],[1,0.5,0],[1,0.75,0]];outlineConnect=0;fontColor=#232F3E;fillColor=#01A88D;strokeColor=#ffffff;dashed=0;verticalLabelPosition=bottom;verticalAlign=top;align=center;html=1;fontSize=12;fontStyle=0;aspect=fixed;shape=mxgraph.aws4.resourceIcon;resIcon=mxgraph.aws4.bedrock;" parent="1" vertex="1">
          <mxGeometry x="445" y="374" width="80" height="80" as="geometry" />
        </mxCell>
        <mxCell id="GkP0RU8iJOVoVW0LUv2G-3" value="" style="sketch=0;points=[[0,0,0],[0.25,0,0],[0.5,0,0],[0.75,0,0],[1,0,0],[0,1,0],[0.25,1,0],[0.5,1,0],[0.75,1,0],[1,1,0],[0,0.25,0],[0,0.5,0],[0,0.75,0],[1,0.25,0],[1,0.5,0],[1,0.75,0]];outlineConnect=0;fontColor=#232F3E;fillColor=#A81B70;strokeColor=#ffffff;dashed=0;verticalLabelPosition=bottom;verticalAlign=top;align=center;html=1;fontSize=12;fontStyle=0;aspect=fixed;shape=mxgraph.aws4.resourceIcon;resIcon=mxgraph.aws4.bedrock;" parent="1" vertex="1">
          <mxGeometry x="792" y="374" width="78" height="78" as="geometry" />
        </mxCell>
        <mxCell id="GkP0RU8iJOVoVW0LUv2G-5" value="" style="sketch=0;outlineConnect=0;fontColor=#232F3E;gradientColor=none;fillColor=#7AA116;strokeColor=none;dashed=0;verticalLabelPosition=bottom;verticalAlign=top;align=center;html=1;fontSize=12;fontStyle=0;aspect=fixed;pointerEvents=1;shape=mxgraph.aws4.bucket;" parent="1" vertex="1">
          <mxGeometry x="140" y="252" width="75" height="78" as="geometry" />
        </mxCell>
        <mxCell id="GkP0RU8iJOVoVW0LUv2G-4" value="" style="dashed=0;outlineConnect=0;html=1;align=center;labelPosition=center;verticalLabelPosition=bottom;verticalAlign=top;shape=mxgraph.webicons.adobe_pdf;fillColor=#F40C0C;gradientColor=#610603" parent="1" vertex="1">
          <mxGeometry x="130" y="234.8" width="30" height="32.4" as="geometry" />
        </mxCell>
        <mxCell id="GkP0RU8iJOVoVW0LUv2G-6" value="AWS Titan" style="text;html=1;align=center;verticalAlign=middle;whiteSpace=wrap;rounded=0;" parent="1" vertex="1">
          <mxGeometry x="380" y="400" width="60" height="30" as="geometry" />
        </mxCell>
        <mxCell id="GkP0RU8iJOVoVW0LUv2G-7" value="" style="sketch=0;outlineConnect=0;fontColor=#232F3E;gradientColor=none;fillColor=#C925D1;strokeColor=none;dashed=0;verticalLabelPosition=bottom;verticalAlign=top;align=center;html=1;fontSize=12;fontStyle=0;aspect=fixed;pointerEvents=1;shape=mxgraph.aws4.aurora_instance;" parent="1" vertex="1">
          <mxGeometry x="610" y="244" width="78" height="78" as="geometry" />
        </mxCell>
        <mxCell id="GkP0RU8iJOVoVW0LUv2G-8" value="Vector Store" style="text;html=1;align=center;verticalAlign=middle;whiteSpace=wrap;rounded=0;" parent="1" vertex="1">
          <mxGeometry x="610" y="214" width="84" height="30" as="geometry" />
        </mxCell>
        <mxCell id="GkP0RU8iJOVoVW0LUv2G-10" value="埋め込み生成" style="rounded=1;whiteSpace=wrap;html=1;" parent="1" vertex="1">
          <mxGeometry x="430" y="267.2" width="90" height="41" as="geometry" />
        </mxCell>
        <mxCell id="GkP0RU8iJOVoVW0LUv2G-12" value="" style="shape=flexArrow;endArrow=classic;html=1;rounded=0;" parent="1" edge="1">
          <mxGeometry width="50" height="50" relative="1" as="geometry">
            <mxPoint x="220" y="286.5" as="sourcePoint" />
            <mxPoint x="280" y="286.5" as="targetPoint" />
          </mxGeometry>
        </mxCell>
        <mxCell id="GkP0RU8iJOVoVW0LUv2G-13" value="" style="shape=flexArrow;endArrow=classic;html=1;rounded=0;" parent="1" edge="1">
          <mxGeometry width="50" height="50" relative="1" as="geometry">
            <mxPoint x="540" y="286.5" as="sourcePoint" />
            <mxPoint x="600" y="286.5" as="targetPoint" />
          </mxGeometry>
        </mxCell>
        <mxCell id="GkP0RU8iJOVoVW0LUv2G-15" value="" style="shape=flexArrow;endArrow=classic;html=1;rounded=0;" parent="1" edge="1">
          <mxGeometry width="50" height="50" relative="1" as="geometry">
            <mxPoint x="390" y="290.5" as="sourcePoint" />
            <mxPoint x="430" y="290.5" as="targetPoint" />
          </mxGeometry>
        </mxCell>
        <mxCell id="GkP0RU8iJOVoVW0LUv2G-17" value="" style="endArrow=classic;html=1;rounded=0;" parent="1" edge="1">
          <mxGeometry width="50" height="50" relative="1" as="geometry">
            <mxPoint x="460" y="362" as="sourcePoint" />
            <mxPoint x="460" y="322" as="targetPoint" />
          </mxGeometry>
        </mxCell>
        <mxCell id="GkP0RU8iJOVoVW0LUv2G-19" value="問い合わせ" style="shape=callout;whiteSpace=wrap;html=1;perimeter=calloutPerimeter;" parent="1" vertex="1">
          <mxGeometry x="220" y="520" width="120" height="76" as="geometry" />
        </mxCell>
        <mxCell id="GkP0RU8iJOVoVW0LUv2G-21" value="" style="points=[[0.35,0,0],[0.98,0.51,0],[1,0.71,0],[0.67,1,0],[0,0.795,0],[0,0.65,0]];verticalLabelPosition=bottom;sketch=0;html=1;verticalAlign=top;aspect=fixed;align=center;pointerEvents=1;shape=mxgraph.cisco19.user;fillColor=#005073;strokeColor=none;" parent="1" vertex="1">
          <mxGeometry x="230" y="590" width="50" height="50" as="geometry" />
        </mxCell>
        <mxCell id="GkP0RU8iJOVoVW0LUv2G-22" value="埋め込み生成" style="rounded=1;whiteSpace=wrap;html=1;" parent="1" vertex="1">
          <mxGeometry x="440" y="530" width="90" height="41" as="geometry" />
        </mxCell>
        <mxCell id="GkP0RU8iJOVoVW0LUv2G-23" value="" style="shape=flexArrow;endArrow=classic;html=1;rounded=0;" parent="1" edge="1">
          <mxGeometry width="50" height="50" relative="1" as="geometry">
            <mxPoint x="360" y="550" as="sourcePoint" />
            <mxPoint x="430" y="550" as="targetPoint" />
          </mxGeometry>
        </mxCell>
        <mxCell id="GkP0RU8iJOVoVW0LUv2G-24" value="" style="endArrow=classic;html=1;rounded=0;" parent="1" edge="1">
          <mxGeometry width="50" height="50" relative="1" as="geometry">
            <mxPoint x="460" y="520" as="sourcePoint" />
            <mxPoint x="460" y="460" as="targetPoint" />
          </mxGeometry>
        </mxCell>
        <mxCell id="GkP0RU8iJOVoVW0LUv2G-25" value="" style="endArrow=classic;html=1;rounded=0;exitX=0.25;exitY=1;exitDx=0;exitDy=0;" parent="1" edge="1">
          <mxGeometry width="50" height="50" relative="1" as="geometry">
            <mxPoint x="500" y="458" as="sourcePoint" />
            <mxPoint x="500" y="520" as="targetPoint" />
          </mxGeometry>
        </mxCell>
        <mxCell id="GkP0RU8iJOVoVW0LUv2G-26" value="近いドキュメント取得" style="rounded=1;whiteSpace=wrap;html=1;" parent="1" vertex="1">
          <mxGeometry x="607" y="530" width="90" height="41" as="geometry" />
        </mxCell>
        <mxCell id="GkP0RU8iJOVoVW0LUv2G-28" value="" style="shape=flexArrow;endArrow=classic;html=1;rounded=0;" parent="1" edge="1">
          <mxGeometry width="50" height="50" relative="1" as="geometry">
            <mxPoint x="537" y="550" as="sourcePoint" />
            <mxPoint x="600" y="550" as="targetPoint" />
          </mxGeometry>
        </mxCell>
        <mxCell id="GkP0RU8iJOVoVW0LUv2G-30" value="" style="endArrow=classic;html=1;rounded=0;" parent="1" edge="1">
          <mxGeometry width="50" height="50" relative="1" as="geometry">
            <mxPoint x="630" y="510" as="sourcePoint" />
            <mxPoint x="630" y="340" as="targetPoint" />
          </mxGeometry>
        </mxCell>
        <mxCell id="GkP0RU8iJOVoVW0LUv2G-31" value="" style="endArrow=classic;html=1;rounded=0;" parent="1" edge="1">
          <mxGeometry width="50" height="50" relative="1" as="geometry">
            <mxPoint x="660" y="340" as="sourcePoint" />
            <mxPoint x="660" y="510" as="targetPoint" />
          </mxGeometry>
        </mxCell>
        <mxCell id="GkP0RU8iJOVoVW0LUv2G-32" value="Claude" style="text;html=1;align=center;verticalAlign=middle;whiteSpace=wrap;rounded=0;" parent="1" vertex="1">
          <mxGeometry x="870" y="398" width="60" height="30" as="geometry" />
        </mxCell>
        <mxCell id="GkP0RU8iJOVoVW0LUv2G-33" value="問い合わせ+取得ドキュメントで結果生成" style="rounded=1;whiteSpace=wrap;html=1;" parent="1" vertex="1">
          <mxGeometry x="768" y="530" width="142" height="41" as="geometry" />
        </mxCell>
        <mxCell id="GkP0RU8iJOVoVW0LUv2G-34" value="" style="shape=flexArrow;endArrow=classic;html=1;rounded=0;" parent="1" edge="1">
          <mxGeometry width="50" height="50" relative="1" as="geometry">
            <mxPoint x="705" y="550" as="sourcePoint" />
            <mxPoint x="750" y="550" as="targetPoint" />
          </mxGeometry>
        </mxCell>
        <mxCell id="GkP0RU8iJOVoVW0LUv2G-35" value="" style="endArrow=classic;html=1;rounded=0;" parent="1" edge="1">
          <mxGeometry width="50" height="50" relative="1" as="geometry">
            <mxPoint x="812" y="520" as="sourcePoint" />
            <mxPoint x="812" y="456" as="targetPoint" />
          </mxGeometry>
        </mxCell>
        <mxCell id="GkP0RU8iJOVoVW0LUv2G-36" value="" style="endArrow=classic;html=1;rounded=0;" parent="1" edge="1">
          <mxGeometry width="50" height="50" relative="1" as="geometry">
            <mxPoint x="842" y="456" as="sourcePoint" />
            <mxPoint x="842" y="520" as="targetPoint" />
          </mxGeometry>
        </mxCell>
        <mxCell id="GkP0RU8iJOVoVW0LUv2G-37" value="" style="shape=flexArrow;endArrow=classic;html=1;rounded=0;" parent="1" edge="1">
          <mxGeometry width="50" height="50" relative="1" as="geometry">
            <mxPoint x="830" y="590" as="sourcePoint" />
            <mxPoint x="400" y="620" as="targetPoint" />
            <Array as="points">
              <mxPoint x="830" y="620" />
            </Array>
          </mxGeometry>
        </mxCell>
        <mxCell id="QgWbPHJha2HVmOexdPXI-3" value="回答" style="rounded=1;whiteSpace=wrap;html=1;" vertex="1" parent="1">
          <mxGeometry x="320" y="599" width="60" height="41" as="geometry" />
        </mxCell>
        <mxCell id="QgWbPHJha2HVmOexdPXI-4" value="" style="endArrow=classic;html=1;rounded=0;" edge="1" parent="1">
          <mxGeometry width="50" height="50" relative="1" as="geometry">
            <mxPoint x="500" y="322" as="sourcePoint" />
            <mxPoint x="500" y="362" as="targetPoint" />
          </mxGeometry>
        </mxCell>
      </root>
    </mxGraphModel>
  </diagram>
</mxfile>
